<svg xmlns="http://www.w3.org/2000/svg" width="800" height="800">
    <path data-name="パス 146" d="m820.237 438.575 30.514-18.485-32.068-15.633 28.7-21.2-33.37-12.614 26.612-23.76-34.4-9.464 24.288-26.131-35.128-6.224 21.754-28.275-35.554-2.935 19.039-30.17-35.673.367 16.171-31.8-35.488 3.654 13.177-33.152-35 6.9 10.079-34.222-34.221 10.08 6.9-35-33.152 13.178 3.653-35.488-31.8 16.172.368-35.673-30.173 19.04-2.935-35.553-28.274 21.754-6.224-35.128L551.9 83.1l-9.464-34.4-23.756 26.618-12.614-33.37-21.2 28.7-15.63-32.073-18.485 30.514-18.485-30.514-15.633 32.068-21.2-28.7-12.614 33.37-23.76-26.612L349.6 83.1l-26.134-24.285-6.224 35.128-28.275-21.754-2.935 35.554-30.17-19.043.367 35.673-31.8-16.171 3.654 35.488-33.152-13.177 6.9 35-34.222-10.079 10.08 34.221-35-6.9 13.178 33.152-35.487-3.653 16.172 31.8-35.673-.368 19.039 30.169-35.555 2.945 21.755 28.274-35.128 6.224 24.289 26.129-34.4 9.464 26.612 23.759-33.37 12.614 28.7 21.2-32.07 15.627 30.514 18.485-30.514 18.484 32.068 15.633-28.7 21.2 33.37 12.614-26.612 23.76 34.4 9.464-24.286 26.129 35.128 6.224-21.754 28.275 35.554 2.935-19.039 30.17 35.673-.367-16.171 31.8 35.488-3.654-13.177 33.152 35-6.9-10.079 34.222 34.221-10.08-6.9 35 33.152-13.178-3.653 35.488 31.8-16.172-.368 35.673 30.169-19.039 2.935 35.554 28.274-21.755 6.224 35.128 26.132-24.288 9.464 34.4 23.759-26.612 12.614 33.37 21.2-28.7 15.633 32.067 18.485-30.514 18.485 30.514 15.633-32.068 21.2 28.7 12.614-33.37 23.76 26.612 9.464-34.4 26.131 24.288 6.224-35.128 28.275 21.754 2.935-35.554 30.17 19.039-.367-35.673 31.8 16.171-3.654-35.488 33.152 13.177-6.9-35 34.222 10.079-10.08-34.221 35 6.9-13.178-33.152 35.488 3.653-16.172-31.8 35.673.367-19.039-30.169 35.554-2.935-21.76-28.275 35.128-6.224-24.289-26.129 34.4-9.464-26.615-23.763 33.37-12.614-28.7-21.2 32.068-15.633z" transform="translate(-50.751 -38.575)" style="fill:#fff"/>
</svg>
